<?xml version="1.0" standalone="no"?>
<!DOCTYPE svg PUBLIC "-//W3C//DTD SVG 20010904//EN"
 "http://www.w3.org/TR/2001/REC-SVG-20010904/DTD/svg10.dtd">
<svg version="1.0" xmlns="http://www.w3.org/2000/svg"
 width="620.000000pt" height="620.000000pt" viewBox="0 0 620.000000 620.000000"
 preserveAspectRatio="xMidYMid meet">

<g transform="translate(0.000000,620.000000) scale(0.100000,-0.100000)"
fill="#000000" stroke="none">
<path d="M2315 6089 c-4 -5 -12 -8 -18 -6 -14 4 -68 -9 -112 -28 -16 -7 -57
-20 -90 -30 -166 -48 -469 -194 -674 -323 -458 -291 -834 -709 -1084 -1203
-392 -775 -443 -1667 -141 -2480 102 -276 297 -623 479 -849 287 -357 644
-645 1050 -845 326 -160 624 -250 995 -302 174 -23 575 -23 755 0 1382 184
2449 1206 2680 2568 129 763 -40 1560 -466 2209 -189 287 -438 556 -691 747
-78 59 -66 46 105 -106 259 -230 495 -551 661 -901 202 -426 296 -848 296
-1327 0 -453 -71 -798 -253 -1231 -48 -113 -188 -354 -203 -348 -8 3 -10 -3
-7 -17 5 -22 5 -22 -11 -2 -16 19 -16 19 -10 -8 6 -28 -9 -39 -19 -13 -3 8
-15 20 -26 26 -17 9 -20 8 -15 -5 5 -11 2 -13 -10 -9 -9 3 -14 10 -11 14 3 5
-8 5 -24 0 -18 -5 -33 -4 -39 2 -8 8 -9 4 -5 -13 3 -13 2 -21 -2 -16 -5 4 -15
-5 -22 -20 -7 -16 -11 -20 -8 -10 4 17 4 17 -20 0 -13 -10 -25 -23 -25 -29 0
-17 -69 -97 -215 -251 -116 -123 -291 -278 -330 -293 -14 -5 -24 -14 -21 -19
3 -5 -2 -8 -12 -7 -9 0 -16 -4 -15 -11 2 -7 -3 -10 -11 -7 -12 5 -31 -10 -38
-31 -1 -5 -7 -9 -12 -7 -13 4 -46 -29 -39 -41 3 -6 1 -7 -5 -3 -6 3 -44 -15
-84 -42 -63 -42 -102 -67 -178 -112 -8 -5 -43 -21 -77 -36 -34 -16 -59 -33
-56 -38 3 -5 1 -6 -4 -3 -14 9 -115 -37 -106 -47 4 -4 0 -4 -10 0 -10 3 -17 1
-17 -6 0 -6 -5 -8 -11 -4 -6 3 -14 3 -18 -2 -7 -10 -304 -109 -371 -123 -257
-56 -405 -72 -649 -74 -145 -1 -225 3 -306 16 -244 40 -410 80 -570 137 -65
24 -326 144 -385 178 -147 84 -443 296 -466 333 -11 18 10 3 101 -70 276 -222
663 -414 1010 -500 447 -111 963 -98 1405 35 225 68 498 193 674 309 55 36
101 65 103 65 1 0 11 7 20 15 10 8 68 53 128 101 147 116 162 129 294 258 62
61 117 122 122 135 5 13 12 21 16 17 8 -7 43 23 43 37 0 5 -8 3 -17 -4 -16
-13 -17 -12 -4 4 8 9 16 15 19 13 9 -9 102 104 102 124 0 6 3 10 8 10 16 0
111 159 112 188 0 6 4 12 8 12 7 0 85 144 87 160 1 3 11 28 24 55 29 62 35 78
56 140 9 28 20 59 25 70 22 51 83 267 104 365 109 520 79 1072 -81 1534 -82
236 -235 555 -263 548 -6 -1 -9 2 -5 8 12 19 -136 238 -157 232 -5 -1 -7 2 -3
8 8 14 -42 63 -57 54 -7 -4 -8 -3 -4 5 4 6 13 8 19 4 7 -4 6 1 -2 11 -8 9 -20
15 -28 12 -8 -3 -11 -1 -8 5 9 14 -24 61 -37 53 -6 -4 -8 -3 -5 3 6 10 -29 50
-42 46 -3 -1 -8 1 -11 4 -3 4 1 3 7 -1 9 -5 11 -2 7 8 -3 9 -12 12 -22 9 -11
-5 -14 -2 -10 9 8 18 -96 123 -111 113 -6 -3 -8 0 -5 8 3 9 -27 41 -83 88 -48
41 -90 77 -91 82 -2 4 -8 4 -13 1 -6 -3 -5 -12 3 -22 12 -15 11 -16 -4 -4 -9
8 -15 19 -13 25 10 30 -276 227 -470 324 -214 107 -380 167 -605 217 -234 53
-309 61 -590 61 -285 0 -394 -11 -598 -61 -56 -14 -108 -22 -114 -18 -7 5 -8
3 -3 -6 6 -9 0 -11 -26 -5 -25 4 -30 3 -19 -4 19 -14 0 -14 -20 -1 -12 8 -11
11 9 16 21 6 23 11 19 56 -3 27 -1 51 4 54 5 3 7 13 4 21 -3 8 -1 11 4 8 6 -3
10 -1 10 4 0 14 -47 14 -55 0z m-5 -29 c0 -5 -8 -10 -17 -10 -15 0 -16 2 -3
10 19 12 20 12 20 0z m-15 -140 c13 -6 15 -9 5 -9 -8 0 -22 4 -30 9 -18 12 -2
12 25 0z m1010 -20 c656 -59 1203 -325 1680 -815 114 -117 325 -391 325 -421
0 -9 5 -12 10 -9 6 3 10 0 10 -7 0 -7 15 -38 33 -68 64 -107 165 -337 214
-490 54 -166 90 -329 119 -535 2 -16 8 -59 14 -95 32 -214 -6 -690 -77 -950
-110 -406 -291 -758 -536 -1043 -97 -112 -299 -307 -320 -307 -10 0 -16 -4
-13 -9 7 -11 -18 -33 -35 -29 -7 2 -13 -2 -14 -9 0 -17 -76 -74 -88 -66 -6 3
-7 1 -3 -5 7 -12 -29 -37 -54 -37 -8 0 -15 -6 -15 -12 0 -14 -151 -113 -172
-113 -7 0 -13 -5 -13 -11 0 -6 -8 -8 -18 -5 -10 4 -27 -1 -38 -10 -10 -8 -13
-13 -6 -9 27 14 10 -4 -24 -24 -40 -24 -58 -27 -30 -6 28 21 17 19 -43 -10
-28 -14 -49 -29 -47 -34 3 -5 -12 -16 -34 -25 -55 -22 -64 -19 -15 5 22 10 29
16 15 13 -36 -10 -110 -45 -80 -39 22 5 23 4 7 -5 -10 -7 -25 -9 -33 -6 -8 3
-13 2 -10 -3 8 -12 -81 -42 -101 -34 -10 4 -14 2 -10 -4 4 -6 -18 -17 -56 -27
-100 -28 -104 -28 -89 -18 11 7 8 11 -13 16 -14 4 -30 4 -36 0 -18 -10 -189
-45 -303 -60 -141 -19 -335 -24 -461 -13 -100 10 -292 36 -317 43 -7 2 -28 7
-46 10 -25 4 -31 3 -26 -7 6 -9 3 -8 -8 1 -9 7 -52 22 -95 32 -129 31 -248 78
-418 163 -202 101 -290 149 -337 184 -26 19 -48 31 -48 26 0 -4 -5 0 -11 10
-6 9 -15 14 -21 11 -7 -4 -8 -2 -4 5 5 7 -3 15 -23 22 -17 6 -33 19 -36 30 -4
11 -11 17 -16 14 -5 -4 -9 2 -9 11 0 10 -3 15 -6 12 -7 -8 -85 64 -233 212
-63 63 -118 114 -122 113 -10 -3 -117 124 -173 206 l-38 56 35 -40 c20 -22 36
-37 37 -33 0 3 -33 55 -74 115 -40 60 -100 164 -134 230 -33 67 -63 118 -67
115 -3 -4 -3 1 0 10 4 9 2 25 -4 35 -8 14 -11 15 -11 3 0 -9 -6 -5 -15 10 -19
33 -18 52 1 20 l15 -25 -7 25 c-3 14 -13 39 -20 55 l-14 30 5 -30 c8 -47 -9
-11 -45 93 -17 51 -30 98 -28 104 2 5 16 -31 32 -81 27 -91 43 -120 31 -59 -5
25 -4 29 4 18 6 -8 11 -21 11 -27 0 -25 115 -279 168 -373 29 -52 85 -142 124
-200 39 -58 61 -96 49 -86 -11 11 -21 15 -21 9 0 -13 45 -55 52 -48 3 3 11 -3
19 -12 13 -16 12 -17 -4 -4 -9 7 -17 9 -17 3 0 -12 25 -34 32 -27 3 3 13 -4
23 -15 10 -11 13 -20 7 -20 -6 0 -13 6 -15 13 -4 7 -6 8 -6 1 -1 -6 6 -17 14
-24 8 -7 15 -10 15 -6 0 3 69 -63 153 -147 238 -239 415 -371 672 -501 283
-142 430 -190 740 -241 464 -77 930 -18 1382 175 335 144 665 385 923 675 264
297 431 623 573 1120 8 28 22 118 32 200 9 83 19 161 21 175 2 14 7 88 10 165
6 145 -23 529 -46 605 -6 19 -13 51 -16 70 -3 19 -8 42 -11 50 -3 8 -7 22 -9
30 -6 33 -65 222 -103 325 -58 162 -170 389 -212 428 -10 10 -19 22 -19 28 0
17 -121 188 -144 204 -11 8 -17 15 -13 15 4 0 -7 15 -25 33 -18 19 -51 55 -73
81 -65 77 -76 88 -175 176 -125 112 -217 185 -317 253 -45 30 -80 57 -78 59 2
2 -5 10 -17 17 -14 8 -18 9 -13 1 6 -9 2 -9 -14 -1 -11 7 -21 14 -21 17 0 3 5
2 12 -2 7 -4 8 -3 4 5 -4 7 -13 10 -19 8 -6 -2 -20 6 -30 17 -10 12 -16 15
-12 9 4 -9 1 -11 -9 -7 -9 3 -16 10 -16 14 0 7 -27 21 -50 25 -3 1 -20 11 -39
22 -19 12 -38 20 -43 17 -4 -3 -8 -1 -8 4 0 12 -119 64 -240 104 -175 58 -288
87 -356 91 -23 1 -40 5 -37 10 4 6 -98 13 -157 9 -20 -1 -22 1 -10 8 10 7 -19
9 -88 5 -65 -3 -101 -1 -97 5 7 11 -5 12 -132 14 -46 0 -84 -2 -85 -6 -2 -4
-41 -8 -88 -8 -84 -1 -149 -14 -161 -32 -3 -5 -47 -10 -97 -11 -52 0 -87 -4
-79 -9 7 -5 -3 -7 -25 -6 -21 1 -43 -3 -50 -10 -7 -7 -20 -12 -30 -12 -26 0
-22 -20 5 -21 12 0 17 -3 10 -5 -6 -3 -28 -1 -48 5 -26 7 -44 6 -67 -3 -19 -8
-26 -15 -17 -18 8 -3 -3 -4 -23 -4 -21 1 -38 2 -38 4 0 7 82 37 175 63 318 92
616 125 900 99z m-328 -46 c-3 -3 -12 -4 -19 -1 -8 3 -5 6 6 6 11 1 17 -2 13
-5z m-368 -48 c-2 -2 -17 -6 -34 -10 -22 -5 -26 -4 -15 4 14 9 59 15 49 6z
m-259 -61 c11 -13 10 -14 -4 -9 -9 3 -16 10 -16 15 0 13 6 11 20 -6z m-143
-21 c-3 -3 -12 -4 -19 -1 -8 3 -5 6 6 6 11 1 17 -2 13 -5z m-42 -14 c-3 -5
-14 -10 -23 -10 -15 0 -15 2 -2 10 20 13 33 13 25 0z m-45 -20 c0 -5 -6 -10
-12 -10 -7 0 -21 -12 -31 -25 -20 -28 -12 -33 14 -9 10 9 24 14 31 12 7 -3 -4
-13 -24 -22 -20 -10 -41 -15 -46 -12 -6 3 -12 -1 -16 -9 -3 -8 -11 -15 -18
-15 -9 0 -8 3 2 10 13 9 13 10 0 11 -8 0 0 7 19 15 18 8 31 17 28 20 -3 3 -14
1 -25 -5 -12 -6 -27 -11 -34 -10 -7 0 14 14 47 29 71 34 65 32 65 20z m60 -7
c-8 -3 -22 -11 -30 -17 -13 -10 -13 -9 -1 7 7 9 21 17 30 16 13 0 14 -1 1 -6z
m-183 -78 c0 -8 -4 -12 -9 -9 -4 3 -8 9 -8 15 0 5 4 9 8 9 5 0 9 -7 9 -15z
m-57 -5 c0 -5 -5 -10 -11 -10 -5 0 -7 5 -4 10 3 6 8 10 11 10 2 0 4 -4 4 -10z
m34 -9 c3 -5 -1 -11 -9 -14 -9 -4 -12 -1 -8 9 6 16 10 17 17 5z m-59 -11 c4
-6 3 -9 -2 -8 -4 1 -23 -3 -42 -10 -31 -11 -33 -14 -18 -25 15 -11 14 -12 -13
-14 -16 -1 -32 2 -35 6 -3 5 4 7 15 4 15 -4 19 -1 15 9 -4 9 6 20 27 30 40 20
45 21 53 8z m1296 -42 c93 -27 173 -138 171 -238 0 -64 -29 -137 -72 -187
l-30 -34 0 -444 0 -445 28 -6 c29 -6 155 -41 185 -51 16 -5 17 11 17 233 l0
238 122 116 c67 63 156 148 197 188 57 54 82 72 103 72 16 0 28 -4 28 -8 0 -4
-26 -29 -57 -56 -32 -26 -122 -107 -201 -179 l-142 -131 2 -255 3 -255 40 -23
40 -22 5 265 5 265 60 56 c110 104 317 308 337 333 20 25 20 25 175 22 112 -2
170 2 212 13 76 20 115 19 176 -2 75 -27 139 -94 160 -167 51 -177 -61 -335
-237 -336 -68 0 -98 10 -150 51 -51 41 -87 105 -95 167 -8 69 2 109 41 175
l35 57 -142 0 -141 0 -193 -194 -193 -195 0 -204 c0 -112 3 -238 6 -280 6 -68
10 -77 36 -97 16 -12 31 -20 33 -18 2 2 5 138 5 302 2 278 0 299 -17 311 -17
13 -15 14 14 15 17 0 35 -5 39 -11 4 -6 7 -159 8 -339 l1 -327 58 -76 c31 -42
64 -92 74 -111 9 -19 25 -37 37 -40 12 -3 79 -6 150 -6 152 0 125 -14 336 174
137 124 193 175 410 376 68 63 137 125 154 138 19 14 30 30 28 42 -3 19 24 40
52 40 30 0 16 -36 -31 -79 -27 -24 -77 -72 -113 -105 -36 -34 -110 -102 -165
-151 -55 -50 -129 -117 -165 -151 -114 -107 -294 -268 -331 -296 -34 -27 -40
-28 -180 -30 l-145 -3 18 -41 18 -41 405 -8 c363 -6 408 -5 430 9 28 18 35 20
35 7 0 -5 -17 -19 -37 -32 l-38 -23 -382 3 c-210 2 -386 0 -391 -3 -7 -4 -6
-16 1 -36 l11 -30 438 0 438 0 27 28 c16 15 48 45 73 66 25 22 73 66 108 98
l62 58 181 0 c153 0 181 -2 186 -15 3 -9 2 -19 -2 -23 -3 -4 -85 -8 -181 -9
l-174 -1 -58 -50 c-31 -28 -68 -62 -82 -77 -14 -15 -51 -50 -83 -76 l-58 -49
-436 0 -435 0 6 -32 c3 -17 7 -33 9 -34 1 -1 247 -4 547 -6 l545 -3 58 48 59
47 146 0 c144 0 181 -7 168 -29 -5 -7 -58 -11 -156 -11 l-149 0 -38 -36 c-72
-67 -28 -62 -628 -68 -302 -2 -551 -5 -552 -5 -2 -1 -3 -14 -3 -30 0 -21 6
-30 23 -35 12 -3 219 -6 461 -6 l438 0 112 -95 c61 -52 129 -110 151 -130 l40
-35 141 0 c116 0 143 -3 148 -15 7 -19 -10 -22 -160 -29 -119 -6 -123 -5 -160
20 -21 14 -66 54 -101 87 -35 34 -67 62 -71 62 -4 0 -14 5 -22 12 -8 6 -35 28
-59 48 l-44 36 -449 -2 -448 -2 0 -37 c0 -31 4 -39 23 -44 12 -3 213 -6 447
-6 l425 0 80 -72 c43 -40 109 -101 145 -135 l65 -63 152 0 c83 0 154 -4 157
-8 2 -4 1 -14 -4 -22 -7 -11 -45 -15 -168 -18 l-160 -4 -56 57 c-31 32 -56 62
-56 67 0 5 -4 6 -10 3 -5 -3 -10 -2 -10 3 0 5 -36 41 -80 81 l-81 71 -444 0
c-420 0 -445 -1 -445 -18 0 -10 -6 -41 -13 -69 l-14 -51 30 -6 c16 -3 133 -6
260 -6 226 0 231 0 261 -24 17 -13 48 -35 70 -49 l38 -26 -26 -12 c-23 -11
-29 -8 -71 30 l-45 41 -260 0 c-143 0 -263 1 -267 3 -9 2 -52 -81 -53 -100 0
-10 49 -13 210 -13 l211 0 107 -97 c59 -53 127 -115 152 -137 214 -190 420
-385 420 -398 0 -21 -33 -2 -101 59 -41 38 -85 77 -97 88 -13 11 -49 43 -80
71 -32 28 -79 71 -107 94 -27 24 -101 91 -163 149 -63 58 -120 110 -128 114
-25 14 -436 22 -460 9 -16 -8 -24 -8 -34 1 -7 7 -10 7 -7 2 3 -6 -3 -16 -13
-22 -15 -10 -17 -9 -12 9 5 20 4 20 -20 4 -39 -25 -39 -9 0 47 47 69 95 176
118 262 30 109 27 371 -4 480 -24 81 -104 259 -122 270 -6 4 -25 30 -44 58
-69 108 -204 207 -371 272 -110 44 -177 56 -309 56 -60 0 -106 4 -106 10 0 5
5 9 11 9 6 0 1 9 -12 19 -17 14 -28 16 -36 9 -9 -7 -17 -5 -27 5 -14 13 -14
16 -1 21 13 5 15 68 15 456 l0 451 -40 48 c-22 26 -40 53 -40 61 0 7 -5 29
-12 47 -9 25 -9 41 -1 63 6 17 7 27 2 24 -16 -10 2 48 28 89 36 58 95 109 138
120 38 9 138 7 176 -5z m-1661 -2 c0 -2 -12 -11 -27 -20 l-28 -17 24 20 c23
21 31 25 31 17z m206 -40 c-1 -8 -8 -21 -15 -30 -7 -9 -9 -16 -3 -16 5 0 15 7
22 15 7 8 17 15 23 15 5 0 -2 -9 -17 -21 -15 -11 -34 -18 -42 -15 -20 8 -41
-4 -25 -13 7 -4 -18 -27 -59 -55 -39 -27 -73 -47 -75 -44 -3 3 6 11 20 18 27
15 28 36 1 34 -23 -2 -20 1 21 26 22 13 32 16 24 6 -12 -15 -7 -15 48 -7 3 1
-3 7 -13 14 -17 12 -17 14 1 28 16 13 17 13 4 -3 -7 -10 -9 -18 -3 -18 13 0
33 25 26 33 -3 3 3 3 14 0 11 -2 23 1 28 8 5 9 2 11 -12 6 -14 -5 -12 -2 6 13
30 24 29 23 26 6z m-316 -41 c-7 -9 -27 -25 -44 -36 -24 -16 -22 -12 9 15 43
38 55 46 35 21z m3291 -12 c13 -16 12 -17 -3 -4 -10 7 -18 15 -18 17 0 8 8 3
21 -13z m-3488 -158 c-430 -407 -710 -916 -827 -1505 -33 -169 -46 -281 -56
-500 l-9 -185 4 225 c2 124 9 248 14 275 6 28 24 122 41 210 17 88 37 178 45
200 7 22 25 78 40 125 103 327 276 644 505 921 84 102 339 349 360 349 3 0
-50 -52 -117 -115z m301 43 c10 -9 0 -22 -47 -61 -58 -49 -84 -59 -47 -19 22
23 25 32 11 32 -5 0 -13 -9 -16 -20 -4 -12 -11 -17 -18 -14 -7 4 -9 4 -5 -1 4
-4 2 -15 -5 -23 -9 -13 -9 -14 1 -8 24 15 10 -2 -86 -100 -119 -121 -137 -142
-234 -269 -248 -328 -417 -690 -493 -1064 -9 -46 -18 -97 -19 -115 -1 -17 -4
-35 -8 -41 -35 -56 -41 -604 -6 -626 7 -5 8 -9 2 -9 -5 0 -9 -12 -8 -27 12
-142 17 -187 30 -243 8 -36 17 -73 20 -84 4 -11 2 -16 -4 -12 -5 3 -12 20 -16
38 -5 26 -9 30 -16 18 -7 -10 -8 -3 -4 26 4 29 2 45 -8 55 -18 17 -31 89 -19
103 5 6 5 20 0 31 -7 18 -8 18 -9 -5 -1 -24 -1 -24 -13 -5 -17 28 -16 527 2
660 39 294 142 645 254 865 38 74 73 137 78 138 5 2 9 10 9 18 0 8 4 14 8 14
11 0 45 71 37 78 -3 3 -5 1 -5 -4 0 -5 -10 -20 -21 -34 -26 -32 -21 -22 31 65
46 77 74 108 86 97 4 -4 4 1 1 11 -4 11 -1 17 8 17 14 0 19 12 16 33 0 4 3 6
8 5 9 -3 91 101 91 115 0 5 7 6 16 3 12 -5 14 -1 8 16 -5 16 -3 20 9 15 8 -3
20 0 26 6 6 6 11 8 11 3 0 -8 17 8 40 39 14 19 14 19 -5 5 -11 -8 -28 -23 -39
-32 -11 -10 -22 -16 -24 -13 -5 5 116 138 131 144 5 2 7 -1 3 -8 -5 -7 -1 -9
9 -4 11 4 13 8 6 13 -7 4 -2 15 14 30 14 13 25 19 26 14 0 -5 4 1 10 14 5 14
13 20 20 16 7 -4 9 -3 6 4 -4 5 8 22 25 36 18 15 44 36 56 46 13 11 28 18 33
14 5 -3 9 0 9 5 0 14 8 14 24 -1z m3521 -168 c3 -5 1 -10 -4 -10 -6 0 -11 5
-11 10 0 6 2 10 4 10 3 0 8 -4 11 -10z m-2300 -112 c46 -21 46 -95 0 -116 -15
-7 -24 -8 -21 -4 3 5 -7 14 -22 21 -25 11 -26 10 -8 -4 11 -8 15 -15 9 -15
-17 0 -27 20 -30 61 -3 30 1 41 19 53 27 19 21 19 53 4z m-694 -56 l286 -7 94
-90 c52 -49 133 -123 180 -163 l86 -73 6 -271 c5 -248 4 -273 -11 -284 -16
-12 -17 7 -22 262 -5 260 -6 276 -24 286 -18 10 -78 62 -128 111 -10 10 -16
22 -13 27 3 5 0 8 -7 5 -7 -2 -53 34 -103 80 l-90 85 -62 0 c-35 0 -63 -4 -63
-9 0 -5 12 -17 28 -27 37 -24 147 -119 270 -233 l102 -95 0 -278 c0 -153 -2
-278 -4 -278 -2 0 -11 -3 -20 -6 -14 -6 -16 22 -16 267 l-1 274 -151 140 c-84
77 -174 161 -200 186 l-49 46 -140 6 c-77 4 -149 12 -160 18 -18 9 -19 8 -11
-8 6 -10 20 -27 32 -38 12 -11 32 -38 43 -60 28 -52 30 -166 4 -210 -14 -24
-17 -26 -11 -6 4 17 3 22 -7 19 -8 -3 -13 -12 -13 -21 1 -9 -4 -13 -12 -10 -8
3 -11 10 -7 17 10 16 13 32 21 113 4 39 5 70 2 68 -4 -2 -16 15 -29 39 -29 53
-84 85 -164 95 -34 5 -52 9 -40 10 12 0 30 4 40 8 14 6 11 9 -17 15 -19 4 -6
4 30 1 36 -2 194 -8 351 -11z m-294 -102 c46 -28 64 -61 68 -127 l4 -58 -8 52
c-13 77 -52 117 -141 147 -8 2 -1 5 15 5 17 1 44 -8 62 -19z m78 -280 c-10
-11 -22 -20 -28 -20 -5 0 1 9 14 20 31 25 37 25 14 0z m-807 -43 c26 -27 37
-44 28 -44 -8 0 -13 4 -11 8 3 4 -14 23 -37 43 -24 20 -38 36 -33 36 6 0 30
-19 53 -43z m841 22 c-22 -13 -31 -11 -17 5 7 8 17 12 22 9 4 -3 2 -9 -5 -14z
m552 -16 c15 -9 33 -28 38 -42 6 -15 12 -142 13 -297 3 -271 3 -271 -19 -288
-23 -17 -23 -16 -23 11 -1 15 -1 146 0 290 1 254 0 262 -20 273 -11 6 -20 8
-20 5 0 -3 -9 -1 -20 5 -25 13 -26 36 -2 49 22 13 19 14 53 -6z m-581 -7 c0
-2 -8 -10 -17 -17 -16 -13 -17 -12 -4 4 13 16 21 21 21 13z m-214 -24 c-10 -2
-22 0 -28 6 -6 6 0 7 19 4 21 -5 23 -7 9 -10z m114 8 c-8 -5 -24 -9 -35 -9
-16 1 -16 2 5 9 35 11 48 11 30 0z m-645 -50 c3 -6 -1 -7 -9 -4 -18 7 -21 14
-7 14 6 0 13 -4 16 -10z m166 -147 c13 -16 12 -17 -3 -4 -10 7 -18 15 -18 17
0 8 8 3 21 -13z m209 -191 c0 -8 -58 39 -90 74 -25 26 -16 21 28 -16 34 -30
62 -56 62 -58z m40 -37 c13 -14 21 -25 18 -25 -2 0 -15 11 -28 25 -13 14 -21
25 -18 25 2 0 15 -11 28 -25z m1417 9 c-3 -3 -12 -4 -19 -1 -8 3 -5 6 6 6 11
1 17 -2 13 -5z m-1217 -190 c0 -11 -39 19 -80 63 l-45 46 63 -52 c34 -29 62
-55 62 -57z m100 -91 c30 -32 31 -34 5 -13 -16 14 -45 40 -65 59 -32 30 -32
32 -5 13 17 -11 46 -37 65 -59z m3222 -80 c36 -32 11 -103 -36 -103 -53 0 -82
52 -56 101 13 24 66 26 92 2z m-3672 -25 c0 -6 -7 -5 -15 2 -8 7 -15 17 -15
22 0 6 7 5 15 -2 8 -7 15 -17 15 -22z m-20 -23 c0 -8 -4 -15 -8 -15 -5 0 -9 7
-9 15 0 8 4 15 9 15 4 0 8 -7 8 -15z m605 -15 c3 -6 -1 -7 -9 -4 -18 7 -21 14
-7 14 6 0 13 -4 16 -10z m1625 -158 l0 -89 -132 -104 c-73 -57 -175 -141 -227
-186 -52 -46 -100 -83 -107 -83 -7 0 -52 33 -100 72 -111 91 -334 267 -354
278 -18 10 -29 190 -12 190 6 0 14 -5 17 -11 4 -6 106 -89 227 -185 l219 -175
28 23 c141 115 363 298 394 325 20 18 39 33 42 33 3 0 5 -40 5 -88z m-1287 -7
c-3 -9 -8 -14 -10 -11 -3 3 -2 9 2 15 9 16 15 13 8 -4z m-515 -12 c-21 -2 -57
-2 -80 0 -24 2 -7 4 37 4 44 0 63 -2 43 -4z m3792 -1 c28 -13 20 -31 -16 -38
-59 -11 -280 0 -298 15 -9 7 -13 17 -10 22 6 10 302 11 324 1z m-3995 -13
c-22 -4 -56 -7 -75 -7 l-35 1 40 7 c22 4 56 7 75 7 l35 1 -40 -9z m98 -6 c-7
-2 -21 -2 -30 0 -10 3 -4 5 12 5 17 0 24 -2 18 -5z m1907 -277 l0 -133 -74
-57 c-40 -31 -78 -56 -85 -56 -8 0 -11 35 -9 127 l3 126 78 64 c43 34 80 63
82 63 3 0 5 -60 5 -134z m-796 27 c27 -22 28 -24 33 -158 3 -74 3 -135 0 -135
-18 0 -166 135 -169 154 -2 11 -2 69 0 129 l3 107 53 -37 c28 -21 64 -48 80
-60z m2816 17 c31 -21 -15 -30 -151 -30 -123 0 -139 -2 -163 -21 -31 -24 -34
-62 -8 -100 45 -68 65 -76 202 -78 108 -2 144 -10 126 -28 -4 -5 -63 -9 -132
-11 -141 -4 -155 1 -219 85 -48 63 -49 118 -3 154 18 13 40 27 48 31 24 10
283 9 300 -2z m-17 -96 c18 -4 27 -12 27 -25 0 -18 -8 -19 -120 -19 -100 0
-122 3 -127 15 -12 32 26 46 112 40 44 -3 92 -8 108 -11z m-2608 -75 c111 -90
106 -79 103 -213 l-3 -117 -95 68 -95 68 -3 133 c-2 106 0 132 10 126 7 -4 45
-33 83 -65z m374 -100 c1 -84 0 -87 -26 -105 -16 -9 -58 -41 -95 -71 -37 -29
-71 -53 -76 -53 -5 0 -10 51 -10 115 -1 133 -5 124 113 219 l80 64 7 -42 c3
-22 7 -80 7 -127z m-1092 69 c-3 -8 -6 -5 -6 6 -1 11 2 17 5 13 3 -3 4 -12 1
-19z m-1884 -213 c5 -50 5 -53 -3 -20 -5 22 -11 87 -14 145 -5 102 -5 103 3
20 5 -47 11 -112 14 -145z m2033 -142 c122 -170 327 -316 515 -367 30 -8 46
-15 36 -15 -78 -3 -286 92 -365 166 -7 7 -33 29 -57 49 -79 64 -186 215 -228
322 -31 77 -17 69 18 -11 19 -43 55 -108 81 -144z m-850 115 c4 -7 3 -8 -4 -4
-7 4 -23 -4 -37 -18 -24 -24 -33 -24 -17 0 5 8 40 32 49 34 1 0 5 -5 9 -12z
m3242 -15 c32 -27 33 -76 3 -93 -23 -12 -54 -3 -44 13 3 5 1 7 -5 3 -13 -8
-42 20 -42 41 0 18 37 53 55 53 7 0 22 -8 33 -17z m-4382 -218 c-3 -5 -5 -1
-5 11 -1 11 -4 24 -8 28 -8 7 -10 18 -17 101 -5 50 -2 45 14 -35 11 -52 18
-99 16 -105z m141 113 c-3 -8 -6 -5 -6 6 -1 11 2 17 5 13 3 -3 4 -12 1 -19z
m4553 -68 c10 -19 21 -20 231 -20 205 0 220 -1 217 -17 -3 -16 -24 -18 -221
-23 -195 -4 -220 -7 -228 -22 -13 -24 -40 -23 -73 3 -28 22 -35 66 -14 87 20
20 76 15 88 -8z m-4522 -60 c0 -22 -1 -22 -8 5 -4 17 -8 39 -8 50 0 16 2 15 8
-5 4 -14 8 -36 8 -50z m3222 50 c0 -6 -8 -14 -17 -17 -10 -4 -23 -14 -30 -22
-7 -9 -13 -12 -13 -7 0 12 41 56 52 56 4 0 8 -5 8 -10z m-110 -95 c-24 -25
-46 -45 -49 -45 -3 0 15 20 39 45 24 25 46 45 49 45 3 0 -15 -20 -39 -45z
m-3080 18 c0 -10 14 -63 30 -117 17 -55 28 -101 26 -104 -3 -2 -15 31 -27 73
-17 56 -25 72 -30 59 -4 -12 -6 -4 -5 21 0 22 -3 50 -7 63 -5 14 -4 22 2 22 6
0 11 -8 11 -17z m-193 -15 c-3 -8 -6 -5 -6 6 -1 11 2 17 5 13 3 -3 4 -12 1
-19z m3373 -612 c-8 -8 -14 -7 -20 4 -11 18 -11 512 0 505 9 -6 19 16 22 48 2
12 4 -106 5 -262 2 -191 0 -288 -7 -295z m-3330 470 c0 -26 -6 -18 -14 19 -5
22 -4 26 4 15 5 -8 10 -24 10 -34z m19 -71 c0 -5 -4 -3 -9 5 -5 8 -9 22 -9 30
0 16 17 -16 18 -35z m3021 -280 l2 -209 31 -30 c18 -18 54 -50 81 -72 36 -31
45 -43 35 -49 -8 -5 -11 -5 -7 0 4 4 -6 18 -23 31 -17 12 -38 30 -48 39 -28
28 -76 65 -82 65 -6 0 -13 168 -12 250 1 46 16 190 19 187 2 -2 4 -97 4 -212z
m175 -30 c4 -60 12 -121 18 -135 7 -13 79 -83 160 -155 82 -71 153 -139 160
-150 10 -19 9 -19 -9 -5 -10 8 -46 39 -79 70 -168 153 -240 215 -248 212 -5
-2 -7 4 -4 13 4 8 2 25 -4 37 -9 22 -9 22 -6 2 3 -12 1 -28 -4 -35 -5 -8 -8
64 -8 171 2 197 11 186 24 -25z m-3131 129 c3 -8 2 -12 -4 -9 -6 3 -10 10 -10
16 0 14 7 11 14 -7z m45 -114 c0 -8 -8 5 -19 29 -11 24 -20 46 -20 50 1 12 39
-64 39 -79z m4513 13 c31 -28 19 -82 -25 -104 -12 -6 -19 -8 -15 -4 5 5 -6 16
-22 26 -32 20 -41 64 -18 87 17 17 58 15 80 -5z m-3952 -12 c0 -5 -9 -13 -20
-16 -11 -4 -18 -11 -15 -16 4 -5 1 -9 -4 -9 -6 0 -11 7 -11 15 0 8 7 15 15 15
8 0 15 5 15 10 0 6 5 10 10 10 6 0 10 -4 10 -9z m38 -3 c14 -14 16 -32 3 -24
-11 7 -36 -22 -27 -31 3 -3 6 -1 6 5 0 7 5 12 12 12 8 0 6 -7 -5 -17 -15 -15
-19 -16 -26 -4 -11 18 -6 47 7 44 6 -2 9 4 6 12 -7 18 7 20 24 3z m-469 -242
c12 -14 12 -16 -1 -11 -14 6 -118 203 -118 222 1 4 24 -38 53 -93 29 -56 59
-109 66 -118z m2528 -219 c-1 -67 -3 -9 -3 128 0 138 2 192 3 122 2 -71 2
-183 0 -250z m1365 353 c54 -15 154 -117 134 -137 -3 -3 1 -12 9 -20 23 -23
20 -133 -6 -187 -25 -54 -54 -83 -65 -65 -5 8 -3 10 6 4 10 -6 12 -4 7 8 -4
10 -2 14 6 11 14 -5 60 80 50 90 -11 11 -24 6 -17 -6 4 -7 3 -8 -4 -4 -7 4
-12 1 -12 -6 0 -8 -7 -23 -15 -34 -10 -12 -8 -3 5 29 36 86 21 170 -41 229
-77 73 -203 71 -286 -5 -14 -12 -23 -15 -23 -8 0 7 -4 10 -9 7 -4 -3 -6 -16
-4 -30 3 -13 -1 -27 -8 -31 -9 -6 -10 -1 -5 19 4 18 3 25 -3 21 -16 -9 0 27
25 58 46 58 161 83 256 57z m-2854 -14 c51 -18 108 -69 133 -118 22 -44 25
-66 3 -25 -8 15 -19 27 -24 27 -5 0 -7 7 -4 15 5 11 2 13 -10 9 -19 -7 -20
-16 -4 -32 6 -6 10 -14 7 -16 -2 -2 -17 14 -33 37 -26 37 -27 39 -6 22 21 -18
23 -18 17 -2 -4 10 -7 22 -7 26 0 4 -24 20 -54 34 -64 31 -153 36 -200 12 -16
-9 -31 -14 -33 -12 -2 3 11 12 29 20 41 21 132 22 186 3z m-8 -41 c14 -8 21
-14 15 -14 -5 0 -21 6 -35 14 -14 8 -20 14 -15 14 6 0 21 -6 35 -14z m2850
-46 c40 -22 70 -65 70 -97 0 -33 -18 -35 -25 -3 -16 74 -134 127 -193 85 -12
-8 -22 -13 -22 -9 0 3 15 14 33 25 41 26 90 25 137 -1z m-2893 -5 c-3 -3 -12
-4 -19 -1 -8 3 -5 6 6 6 11 1 17 -2 13 -5z m44 -21 c13 -16 12 -17 -3 -4 -17
13 -22 21 -14 21 2 0 10 -8 17 -17z m-1007 -49 c3 -8 2 -12 -4 -9 -6 3 -10 1
-10 -6 0 -7 -3 -10 -6 -6 -7 6 2 37 10 37 2 0 7 -7 10 -16z m1066 -16 c0 -5
-7 -3 -15 6 -8 8 -15 18 -15 22 0 3 7 1 15 -6 8 -7 15 -17 15 -22z m107 -50
c-2 -13 -4 -5 -4 17 -1 22 1 32 4 23 2 -10 2 -28 0 -40z m-978 -227 c47 -58
63 -86 25 -46 -36 38 -94 112 -94 120 0 3 -9 16 -21 28 -22 24 -99 150 -99
164 0 4 34 -44 75 -106 42 -63 93 -135 114 -160z m878 237 c-3 -8 -6 -5 -6 6
-1 11 2 17 5 13 3 -3 4 -12 1 -19z m1868 -18 c3 -6 -1 -7 -9 -4 -18 7 -21 14
-7 14 6 0 13 -4 16 -10z m-1768 -42 c-3 -8 -6 -5 -6 6 -1 11 2 17 5 13 3 -3 4
-12 1 -19z m1503 -50 c0 -6 -6 -5 -15 2 -8 7 -15 14 -15 16 0 2 7 1 15 -2 8
-4 15 -11 15 -16z m999 -74 c33 -22 53 -27 106 -27 48 -1 61 -3 49 -10 -35
-20 -112 -9 -209 27 -29 11 -34 15 -17 16 25 0 29 22 7 40 -8 7 -15 20 -15 29
0 9 8 3 20 -16 10 -18 37 -44 59 -59z m1101 69 c0 -14 -19 -38 -25 -32 -8 8 5
39 16 39 5 0 9 -3 9 -7z m-1699 -30 c13 -16 12 -17 -3 -4 -17 13 -22 21 -14
21 2 0 10 -8 17 -17z m850 -16 c-10 -9 -11 -8 -5 6 3 10 9 15 12 12 3 -3 0
-11 -7 -18z m859 4 c-5 -11 -15 -23 -22 -27 -7 -5 -8 -2 -3 7 21 37 44 55 25
20z m-1352 -28 c-10 -2 -26 -2 -35 0 -10 3 -2 5 17 5 19 0 27 -2 18 -5z m80 0
c-10 -2 -28 -2 -40 0 -13 2 -5 4 17 4 22 1 32 -1 23 -4z m366 -11 c3 -5 -1 -9
-9 -9 -8 0 -12 4 -9 9 3 4 7 8 9 8 2 0 6 -4 9 -8z m-250 -28 c6 -15 4 -15 -11
-3 -10 7 -20 15 -22 16 -2 2 3 3 11 3 9 0 19 -7 22 -16z m-1127 -121 c-3 -10
-5 -2 -5 17 0 19 2 27 5 18 2 -10 2 -26 0 -35z m-20 12 c0 -8 -4 -12 -9 -9 -4
3 -8 9 -8 15 0 5 4 9 8 9 5 0 9 -7 9 -15z m-2184 -31 c16 -19 25 -34 20 -34
-4 0 -21 16 -36 35 -36 45 -21 44 16 -1z m1984 10 c-3 -3 -12 -4 -19 -1 -8 3
-5 6 6 6 11 1 17 -2 13 -5z m223 -21 c42 -29 77 -75 90 -116 6 -21 9 -42 6
-45 -3 -3 -6 0 -6 6 0 6 -5 23 -11 39 -6 15 -9 29 -7 30 4 2 -75 76 -98 90
-10 6 -14 12 -9 12 6 1 22 -7 35 -16z m-2100 -117 c0 -5 -16 8 -35 30 -19 21
-34 44 -34 49 -1 6 15 -8 34 -30 19 -22 34 -44 35 -49z m2035 43 c30 -21 55
-56 55 -77 0 -3 -14 11 -31 31 -32 39 -57 53 -119 68 -32 8 -31 8 13 5 29 -2
61 -13 82 -27z m-1989 -81 l29 -32 -32 25 c-18 13 -32 27 -32 32 -1 12 4 8 35
-25z m2151 -55 c-3 -10 -5 -4 -5 12 0 17 2 24 5 18 2 -7 2 -21 0 -30z m-2066
-22 c18 -17 31 -32 28 -35 -3 -3 -21 10 -39 29 -41 43 -35 46 11 6z m1827
-178 c-16 -2 -40 -2 -55 0 -16 2 -3 4 27 4 30 0 43 -2 28 -4z m1101 -117 c-2
-2 -15 -9 -29 -15 -24 -11 -24 -11 -6 3 16 13 49 24 35 12z m-502 -172 c-3 -3
-12 -4 -19 -1 -8 3 -5 6 6 6 11 1 17 -2 13 -5z m-29 -12 c8 -6 2 -9 -18 -9
-20 0 -26 3 -18 9 7 4 15 8 18 8 3 0 11 -4 18 -8z m-1101 -8 c-3 -3 -12 -4
-19 -1 -8 3 -5 6 6 6 11 1 17 -2 13 -5z"/>
<path d="M2618 5839 c-8 -6 1 -9 25 -9 20 0 37 2 37 4 0 9 -50 12 -62 5z"/>
<path d="M2358 5773 c7 -3 16 -2 19 1 4 3 -2 6 -13 5 -11 0 -14 -3 -6 -6z"/>
<path d="M1150 1491 c0 -6 4 -13 10 -16 6 -3 7 1 4 9 -7 18 -14 21 -14 7z"/>
<path d="M3840 671 c12 -9 13 -11 1 -11 -8 0 -12 -2 -9 -5 3 -3 16 -1 29 4 13
5 19 10 12 10 -6 1 -20 4 -30 7 -15 5 -15 4 -3 -5z"/>
<path d="M3760 650 c8 -5 24 -9 35 -9 l20 0 -20 9 c-11 5 -27 9 -35 9 -13 1
-13 0 0 -9z"/>
<path d="M3030 5484 c-75 -32 -120 -102 -120 -184 0 -60 18 -107 62 -163 l33
-41 4 -453 3 -453 38 0 37 0 7 61 c3 34 6 239 6 455 l0 394 26 0 27 0 -5 -449
-5 -449 41 -5 c22 -2 45 -2 49 1 5 2 7 208 6 458 -3 448 -2 454 18 476 45 48
68 110 68 178 0 82 -25 126 -94 163 -57 31 -143 36 -201 11z m130 -30 c49 -10
106 -70 114 -120 9 -53 -9 -128 -29 -120 -9 3 -12 0 -9 -8 7 -18 -72 -56 -118
-56 -50 0 -117 39 -139 80 -41 76 -15 161 66 211 32 20 62 23 115 13z"/>
<path d="M3138 5403 c7 -3 16 -2 19 1 4 3 -2 6 -13 5 -11 0 -14 -3 -6 -6z"/>
<path d="M3201 5324 c0 -11 3 -14 6 -6 3 7 2 16 -1 19 -3 4 -6 -2 -5 -13z"/>
<path d="M3107 5313 c-12 -11 -8 -23 8 -23 8 0 15 7 15 15 0 16 -12 20 -23 8z"/>
<path d="M3021 5274 c0 -11 3 -14 6 -6 3 7 2 16 -1 19 -3 4 -6 -2 -5 -13z"/>
<path d="M3105 5210 c-3 -6 1 -7 9 -4 18 7 21 14 7 14 -6 0 -13 -4 -16 -10z"/>
<path d="M3196 5193 c-6 -14 -5 -15 5 -6 7 7 10 15 7 18 -3 3 -9 -2 -12 -12z"/>
<path d="M4445 4943 c-46 -24 -66 -45 -86 -88 -58 -126 35 -294 164 -295 121
-1 206 85 207 208 0 55 -23 113 -57 144 -51 47 -169 63 -228 31z m165 -38 c51
-26 80 -75 80 -134 0 -59 -18 -100 -56 -130 -82 -64 -216 -16 -244 88 -14 53
-6 92 28 133 47 55 131 74 192 43z"/>
<path d="M1600 5396 c0 -2 7 -7 16 -10 8 -3 12 -2 9 4 -6 10 -25 14 -25 6z"/>
<path d="M1503 5303 c0 -17 12 -17 27 1 9 12 8 15 -8 13 -10 0 -19 -7 -19 -14z"/>
<path d="M1261 5086 c-9 -11 -9 -16 1 -22 7 -4 10 -4 6 1 -4 4 -3 14 3 22 6 7
9 13 6 13 -2 0 -10 -6 -16 -14z"/>
<path d="M522 3050 c0 -14 2 -19 5 -12 2 6 2 18 0 25 -3 6 -5 1 -5 -13z"/>
<path d="M523 2985 c-3 -9 -3 -18 -1 -21 3 -3 8 4 11 16 6 23 -1 27 -10 5z"/>
<path d="M562 2800 c0 -14 2 -19 5 -12 2 6 2 18 0 25 -3 6 -5 1 -5 -13z"/>
<path d="M1870 4903 c0 -13 27 -49 33 -43 3 3 -3 16 -14 29 -10 13 -19 19 -19
14z"/>
<path d="M1897 4691 c-3 -14 -1 -18 9 -14 16 6 18 19 5 27 -5 3 -11 -3 -14
-13z"/>
<path d="M3683 1995 c0 -22 2 -30 4 -17 2 12 2 30 0 40 -3 9 -5 -1 -4 -23z"/>
<path d="M5610 1670 c-6 -11 -8 -20 -6 -20 3 0 10 9 16 20 6 11 8 20 6 20 -3
0 -10 -9 -16 -20z"/>
<path d="M5490 1656 c0 -2 7 -7 16 -10 8 -3 12 -2 9 4 -6 10 -25 14 -25 6z"/>
</g>
</svg>
